ffmpeg version N-102852-g758e2da289 Copyright (c) 2000-2021 the FFmpeg developers
  built with gcc 7 (Ubuntu 7.5.0-3ubuntu1~18.04)
  configuration: --prefix=/home/aleksandr/ffmpeg_debug_build --pkg-config-flags=--static --extra-cflags=-I/home/aleksandr/ffmpeg_debug_build/include --extra-cflags=-g --extra-ldflags=-L/home/aleksandr/ffmpeg_debug_build/lib --extra-ldflags=-g --extra-libs='-lpthread -lm' --bindir=/home/aleksandr/bin_debug --enable-gpl --enable-libass --enable-libfdk-aac --enable-libfreetype --enable-libmp3lame --enable-libopus --enable-libtheora --enable-libvorbis --enable-libvpx --enable-libx264 --enable-libx265 --enable-debug --enable-nonfree
  libavutil      57.  0.100 / 57.  0.100
  libavcodec     59.  3.101 / 59.  3.101
  libavformat    59.  4.100 / 59.  4.100
  libavdevice    59.  0.100 / 59.  0.100
  libavfilter     8.  0.103 /  8.  0.103
  libswscale      6.  0.100 /  6.  0.100
  libswresample   4.  0.100 /  4.  0.100
  libpostproc    56.  0.100 / 56.  0.100
Input #0, matroska,webm, from '../.././Samples/29_VP8_1280x720_30_068fps.webm':
  Metadata:
    encoder         : libwebm-0.2.1.0
  Duration: 00:00:16.67, start: 0.000000, bitrate: 873 kb/s
  Stream #0:0(eng): Video: vp8, yuv420p(progressive), 1280x720, SAR 1:1 DAR 16:9, 30 fps, 30 tbr, 1k tbn (default)
Stream mapping:
  Stream #0:0 -> #0:0 (vp8 (native) -> h264 (libx264))
Press [q] to stop, [?] for help
[libx264 @ 0x55f5a6016380] using SAR=1/1
[libx264 @ 0x55f5a6016380] using cpu capabilities: MMX2 SSE2Fast SSSE3 SSE4.2 AVX FMA3 BMI2 AVX2
[libx264 @ 0x55f5a6016380] profile High, level 3.1
[libx264 @ 0x55f5a6016380] 264 - core 152 r2854 e9a5903 - H.264/MPEG-4 AVC codec - Copyleft 2003-2017 - http://www.videolan.org/x264.html - options: cabac=1 ref=3 deblock=1:0:0 analyse=0x3:0x113 me=hex subme=7 psy=1 psy_rd=1.00:0.00 mixed_ref=1 me_range=16 chroma_me=1 trellis=1 8x8dct=1 cqm=0 deadzone=21,11 fast_pskip=1 chroma_qp_offset=-2 threads=6 lookahead_threads=1 sliced_threads=0 nr=0 decimate=1 interlaced=0 bluray_compat=0 constrained_intra=0 bframes=3 b_pyramid=2 b_adapt=1 b_bias=0 direct=1 weightb=1 open_gop=0 weightp=2 keyint=250 keyint_min=25 scenecut=40 intra_refresh=0 rc_lookahead=40 rc=crf mbtree=1 crf=23.0 qcomp=0.60 qpmin=0 qpmax=69 qpstep=4 ip_ratio=1.40 aq=1:1.00
Output #0, mov, to '/home/aleksandr/Debug-release_tests/Debug/Samples/29_VP8_1280x720_30_068fps.webm_tc/output_std7.mov':
  Metadata:
    encoder         : Lavf59.4.100
  Stream #0:0(eng): Video: h264 (avc1 / 0x31637661), yuv420p(tv, bt470bg/unknown/unknown, progressive), 1280x720 [SAR 1:1 DAR 16:9], q=2-31, 30 fps, 15360 tbn (default)
    Metadata:
      encoder         : Lavc59.3.101 libx264
    Side data:
      cpb: bitrate max/min/avg: 0/0/0 buffer size: 0 vbv_delay: N/A
frame=    1 fps=0.0 q=0.0 size=       0kB time=00:00:00.00 bitrate=N/A speed=   0x    frame=   58 fps=0.0 q=29.0 size=       0kB time=00:00:00.16 bitrate=   1.7kbits/s speed=0.316x    frame=   80 fps= 73 q=29.0 size=     512kB time=00:00:00.90 bitrate=4660.3kbits/s speed=0.821x    frame=  101 fps= 61 q=29.0 size=     768kB time=00:00:01.60 bitrate=3932.2kbits/s speed=0.963x    frame=  121 fps= 56 q=29.0 size=    1024kB time=00:00:02.26 bitrate=3700.9kbits/s speed=1.05x    frame=  137 fps= 51 q=29.0 size=    1280kB time=00:00:02.80 bitrate=3744.9kbits/s speed=1.05x    frame=  155 fps= 49 q=29.0 size=    1536kB time=00:00:03.40 bitrate=3700.9kbits/s speed=1.07x    frame=  171 fps= 45 q=29.0 size=    2048kB time=00:00:03.93 bitrate=4265.4kbits/s speed=1.04x    frame=  193 fps= 44 q=29.0 size=    2304kB time=00:00:04.66 bitrate=4044.5kbits/s speed=1.07x    frame=  210 fps= 43 q=29.0 size=    2560kB time=00:00:05.23 bitrate=4007.3kbits/s speed=1.08x    frame=  229 fps= 43 q=29.0 size=    2816kB time=00:00:05.86 bitrate=3932.2kbits/s speed=1.09x    frame=  250 fps= 42 q=29.0 size=    3072kB time=00:00:06.56 bitrate=3832.4kbits/s speed=1.11x    frame=  271 fps= 42 q=29.0 size=    3328kB time=00:00:07.26 bitrate=3751.8kbits/s speed=1.12x    frame=  292 fps= 41 q=29.0 size=    3840kB time=00:00:07.96 bitrate=3948.6kbits/s speed=1.13x    frame=  314 fps= 42 q=29.0 size=    4096kB time=00:00:08.70 bitrate=3856.8kbits/s speed=1.15x    frame=  333 fps= 41 q=29.0 size=    4352kB time=00:00:09.33 bitrate=3819.8kbits/s speed=1.16x    frame=  352 fps= 41 q=29.0 size=    4864kB time=00:00:09.96 bitrate=3997.9kbits/s speed=1.16x    frame=  371 fps= 41 q=29.0 size=    5120kB time=00:00:10.60 bitrate=3956.9kbits/s speed=1.16x    frame=  392 fps= 40 q=29.0 size=    5376kB time=00:00:11.30 bitrate=3897.4kbits/s speed=1.17x    frame=  412 fps= 40 q=29.0 size=    5888kB time=00:00:11.96 bitrate=4030.7kbits/s speed=1.17x    frame=  431 fps= 40 q=29.0 size=    6144kB time=00:00:12.60 bitrate=3994.6kbits/s speed=1.18x    frame=  450 fps= 40 q=29.0 size=    6656kB time=00:00:13.23 bitrate=4120.4kbits/s speed=1.18x    frame=  471 fps= 40 q=29.0 size=    6912kB time=00:00:13.93 bitrate=4063.9kbits/s speed=1.18x    frame=  491 fps= 40 q=29.0 size=    7168kB time=00:00:14.60 bitrate=4021.9kbits/s speed=1.19x    frame=  500 fps= 36 q=-1.0 Lsize=    8417kB time=00:00:16.56 bitrate=4162.3kbits/s speed=1.21x    
video:8413kB audio:0kB subtitle:0kB other streams:0kB global headers:0kB muxing overhead: 0.054534%
[libx264 @ 0x55f5a6016380] frame I:4     Avg QP:23.74  size: 74342
[libx264 @ 0x55f5a6016380] frame P:401   Avg QP:27.00  size: 19490
[libx264 @ 0x55f5a6016380] frame B:95    Avg QP:30.18  size:  5275
[libx264 @ 0x55f5a6016380] consecutive B-frames: 68.0% 18.4%  4.8%  8.8%
[libx264 @ 0x55f5a6016380] mb I  I16..4:  1.2% 54.7% 44.1%
[libx264 @ 0x55f5a6016380] mb P  I16..4:  0.5%  3.5%  1.1%  P16..4: 48.2% 15.5%  6.6%  0.0%  0.0%    skip:24.7%
[libx264 @ 0x55f5a6016380] mb B  I16..4:  0.1%  0.5%  0.2%  B16..8: 61.2%  5.1%  1.1%  direct: 0.7%  skip:31.0%  L0:58.9% L1:37.2% BI: 4.0%
[libx264 @ 0x55f5a6016380] 8x8 transform intra:66.4% inter:76.7%
[libx264 @ 0x55f5a6016380] coded y,uvDC,uvAC intra: 89.2% 42.5% 16.3% inter: 26.4% 4.3% 0.2%
[libx264 @ 0x55f5a6016380] i16 v,h,dc,p:  2% 89%  4%  5%
[libx264 @ 0x55f5a6016380] i8 v,h,dc,ddl,ddr,vr,hd,vl,hu:  5% 51% 10%  3%  4%  2% 11%  3% 11%
[libx264 @ 0x55f5a6016380] i4 v,h,dc,ddl,ddr,vr,hd,vl,hu:  7% 55%  9%  3%  4%  2% 10%  2%  8%
[libx264 @ 0x55f5a6016380] i8c dc,h,v,p: 68% 18% 10%  4%
[libx264 @ 0x55f5a6016380] Weighted P-Frames: Y:0.0% UV:0.0%
[libx264 @ 0x55f5a6016380] ref P L0: 68.2% 25.3%  4.9%  1.6%
[libx264 @ 0x55f5a6016380] ref B L0: 97.4%  2.4%  0.2%
[libx264 @ 0x55f5a6016380] ref B L1: 99.5%  0.5%
[libx264 @ 0x55f5a6016380] kb/s:4134.75
	Command being timed: "/home/aleksandr/bin_debug/ffmpeg -i ../.././Samples/29_VP8_1280x720_30_068fps.webm -c:v libx264 -f mov /home/aleksandr/Debug-release_tests/Debug/Samples/29_VP8_1280x720_30_068fps.webm_tc/output_std7.mov"
	User time (seconds): 53.18
	System time (seconds): 0.19
	Percent of CPU this job got: 387%
	Elapsed (wall clock) time (h:mm:ss or m:ss): 0:13.77
	Average shared text size (kbytes): 0
	Average unshared data size (kbytes): 0
	Average stack size (kbytes): 0
	Average total size (kbytes): 0
	Maximum resident set size (kbytes): 257668
	Average resident set size (kbytes): 0
	Major (requiring I/O) page faults: 3
	Minor (reclaiming a frame) page faults: 20300
	Voluntary context switches: 7116
	Involuntary context switches: 4150
	Swaps: 0
	File system inputs: 704
	File system outputs: 16856
	Socket messages sent: 0
	Socket messages received: 0
	Signals delivered: 0
	Page size (bytes): 4096
	Exit status: 0
